<?xml version="1.0" encoding="iso-8859-1"?>
<!-- Uploaded to: SVG Repo, www.svgrepo.com, Generator: SVG Repo Mixer Tools -->
<svg version="1.1" id="Layer_1" xmlns="http://www.w3.org/2000/svg" xmlns:xlink="http://www.w3.org/1999/xlink" 
	 viewBox="0 0 512 512" xml:space="preserve">
<rect id="SVGCleanerId_0" x="18.608" y="121.472" style="fill:#FFFFFF;" width="474.8" height="340.312"/>
<polyline style="fill:#38C6B4;" points="16,159.624 16,52.872 194.336,52.872 263.408,120.696 "/>
<polygon style="fill:#222077;" points="32,159.624 0,159.624 0,36.872 200.872,36.872 274.616,109.272 252.192,132.112 
	187.8,68.872 32,68.872 "/>
<rect id="SVGCleanerId_1" x="26.768" y="116.168" style="fill:#DBDBDB;" width="458.48" height="48"/>
<path id="SVGCleanerId_2" style="fill:#222077;" d="M480,140.136v302.992H32V140.136H480 M512,108.136H0v366.992h512V108.136
	L512,108.136z"/>
<g>
	<ellipse style="fill:#222077;" cx="155.816" cy="305.36" rx="34.104" ry="33.952"/>
	<ellipse style="fill:#222077;" cx="255.992" cy="305.36" rx="34.104" ry="33.952"/>
	<ellipse style="fill:#222077;" cx="356.184" cy="305.36" rx="34.104" ry="33.952"/>
</g>
<g>
	<rect id="SVGCleanerId_0_1_" x="18.608" y="121.472" style="fill:#FFFFFF;" width="474.8" height="340.312"/>
</g>
<polyline style="fill:#38C6B4;" points="16,159.624 16,52.872 194.336,52.872 263.408,120.696 "/>
<polygon style="fill:#222077;" points="32,159.624 0,159.624 0,36.872 200.872,36.872 274.616,109.272 252.192,132.112 
	187.8,68.872 32,68.872 "/>
<g>
	<rect id="SVGCleanerId_1_1_" x="26.768" y="116.168" style="fill:#DBDBDB;" width="458.48" height="48"/>
</g>
<g>
	<path id="SVGCleanerId_2_1_" style="fill:#222077;" d="M480,140.136v302.992H32V140.136H480 M512,108.136H0v366.992h512V108.136
		L512,108.136z"/>
</g>
<g>
	<ellipse style="fill:#222077;" cx="155.816" cy="305.36" rx="34.104" ry="33.952"/>
	<ellipse style="fill:#222077;" cx="255.992" cy="305.36" rx="34.104" ry="33.952"/>
	<ellipse style="fill:#222077;" cx="356.184" cy="305.36" rx="34.104" ry="33.952"/>
</g>
</svg>